<?xml version="1.0" standalone="no"?>
<!DOCTYPE svg PUBLIC "-//W3C//DTD SVG 20010904//EN"
 "http://www.w3.org/TR/2001/REC-SVG-20010904/DTD/svg10.dtd">
<svg version="1.0" xmlns="http://www.w3.org/2000/svg"
 width="1200.000000pt" height="1200.000000pt" viewBox="0 0 1200.000000 1200.000000"
 preserveAspectRatio="xMidYMid meet">
<metadata>
Created by potrace 1.11, written by Peter Selinger 2001-2013
</metadata>
<g transform="translate(0.000000,1200.000000) scale(0.100000,-0.100000)"
fill="#000000" stroke="none">
<path d="M0 6000 l0 -6000 6000 0 6000 0 0 6000 0 6000 -6000 0 -6000 0 0
-6000z m1670 -185 l0 -2825 -420 0 -420 0 0 2825 0 2825 420 0 420 0 0 -2825z
m3288 2333 l-3 -493 -722 -3 -723 -2 0 -615 0 -615 675 0 675 0 0 -495 0 -495
-675 0 -675 0 0 -725 0 -725 725 0 725 0 0 -495 0 -495 -1145 0 -1145 0 0
2825 0 2825 1145 0 1145 0 -2 -492z m3110 0 l-3 -493 -722 -3 -723 -2 0 -615
0 -615 675 0 675 0 -2 -492 -3 -493 -672 -3 -673 -2 0 -725 0 -725 725 0 725
0 0 -495 0 -495 -1145 0 -1145 0 0 2825 0 2825 1145 0 1145 0 -2 -492z m3120
0 l-3 -493 -722 -3 -723 -2 0 -615 0 -615 675 0 675 0 -2 -492 -3 -493 -672
-3 -673 -2 0 -725 0 -725 725 0 725 0 0 -495 0 -495 -1145 0 -1145 0 0 2825 0
2825 1145 0 1145 0 -2 -492z"/>
</g>
</svg>
